<svg width="393" height="305" viewBox="0 0 393 305" fill="none" xmlns="http://www.w3.org/2000/svg">
<path d="M0 0H393V255C393 282.614 370.614 305 343 305H50C22.3858 305 0 282.614 0 255V0Z" fill="#2196F3"/>
<path fill-rule="evenodd" clip-rule="evenodd" d="M241.769 38.6832C225.328 53.4387 223.962 78.7284 238.717 95.1694L391.836 265.778C392.598 262.307 393 258.7 393 255V0H284.871L241.769 38.6832Z" fill="#FFFEFE" fill-opacity="0.15"/>
<path fill-rule="evenodd" clip-rule="evenodd" d="M333.206 304H93.8125L196.636 211.717C213.077 196.961 238.367 198.328 253.123 214.769L333.206 304Z" fill="#2C79EC" fill-opacity="0.50"/>
<path fill-rule="evenodd" clip-rule="evenodd" d="M66.0516 0L159.09 103.666C173.846 120.107 172.48 145.397 156.039 160.152L14.0641 287.572C6.54449 278.823 2 267.442 2 255V0H66.0516Z" fill="#FFFEFE" fill-opacity="0.15"/>
</svg>
