<svg width="26" height="26" viewBox="0 0 26 26" fill="none" xmlns="http://www.w3.org/2000/svg">
<path d="M18.2 16.9C17.1167 16.9 16.1958 16.5208 15.4375 15.7625C14.6792 15.0042 14.3 14.0833 14.3 13C14.3 11.9167 14.6792 10.9958 15.4375 10.2375C16.1958 9.47917 17.1167 9.1 18.2 9.1C19.2833 9.1 20.2042 9.47917 20.9625 10.2375C21.7208 10.9958 22.1 11.9167 22.1 13C22.1 14.0833 21.7208 15.0042 20.9625 15.7625C20.2042 16.5208 19.2833 16.9 18.2 16.9ZM10.4 26V22.23C10.4 21.775 10.5083 21.3471 10.725 20.9462C10.9417 20.5454 11.245 20.2258 11.635 19.9875C12.3283 19.5758 13.0596 19.2346 13.8287 18.9638C14.5979 18.6929 15.3833 18.4925 16.185 18.3625L18.2 20.8L20.215 18.3625C21.0167 18.4925 21.7967 18.6929 22.555 18.9638C23.3133 19.2346 24.0392 19.5758 24.7325 19.9875C25.1225 20.2258 25.4313 20.5454 25.6588 20.9462C25.8863 21.3471 26 21.775 26 22.23V26H10.4ZM7.8 22.23V23.4H2.6C1.885 23.4 1.27292 23.1454 0.76375 22.6362C0.254583 22.1271 0 21.515 0 20.8V2.6C0 1.885 0.254583 1.27292 0.76375 0.76375C1.27292 0.254583 1.885 0 2.6 0H20.8C21.515 0 22.1271 0.254583 22.6362 0.76375C23.1454 1.27292 23.4 1.885 23.4 2.6V9.1C22.7283 8.255 21.97 7.61042 21.125 7.16625C20.28 6.72208 19.305 6.5 18.2 6.5V5.2H5.2V7.8H14.3C13.8667 8.14667 13.4767 8.53667 13.13 8.97C12.7833 9.40333 12.4908 9.88 12.2525 10.4H5.2V13H11.7C11.7 13.455 11.7487 13.8992 11.8462 14.3325C11.9437 14.7658 12.0792 15.1883 12.2525 15.6H5.2V18.2H9.685C9.1 18.6983 8.63958 19.2996 8.30375 20.0037C7.96792 20.7079 7.8 21.45 7.8 22.23Z" fill="#C5C5C5"/>
</svg>
