<svg width="26" height="28" viewBox="0 0 26 28" fill="none" xmlns="http://www.w3.org/2000/svg">
<path d="M9.07917 26.2827V22.0018C9.07917 20.9091 9.95139 20.0232 11.0273 20.0232H14.9604C15.4771 20.0232 15.9726 20.2317 16.338 20.6027C16.7033 20.9738 16.9086 21.4771 16.9086 22.0018V26.2827C16.9053 26.737 17.0807 27.1738 17.3959 27.4962C17.711 27.8187 18.1399 28 18.5872 28H21.2705C22.5237 28.0033 23.7267 27.5 24.614 26.6011C25.5013 25.7023 26 24.4818 26 23.2089V11.0136C26 9.98544 25.5513 9.01017 24.7747 8.35053L15.6466 0.946216C14.0587 -0.352013 11.7836 -0.310097 10.2432 1.04577L1.32328 8.35053C0.510066 8.99073 0.0240189 9.96888 0 11.0136V23.1965C0 25.8494 2.11747 28 4.7295 28H7.35156C8.28063 28 9.03568 27.2387 9.04241 26.2951L9.07917 26.2827Z" fill="#C5C5C5"/>
</svg>
