<svg width="28" height="28" viewBox="0 0 28 28" fill="none" xmlns="http://www.w3.org/2000/svg">
<path d="M3.11111 28C2.25556 28 1.52315 27.6954 0.913889 27.0861C0.30463 26.4769 0 25.7444 0 24.8889V3.11111C0 2.25556 0.30463 1.52315 0.913889 0.913889C1.52315 0.30463 2.25556 0 3.11111 0H20.2222L28 7.77778V24.8889C28 25.7444 27.6954 26.4769 27.0861 27.0861C26.4769 27.6954 25.7444 28 24.8889 28H3.11111ZM7.77778 21.7778C8.21852 21.7778 8.58796 21.6287 8.88611 21.3306C9.18426 21.0324 9.33333 20.663 9.33333 20.2222C9.33333 19.7815 9.18426 19.412 8.88611 19.1139C8.58796 18.8157 8.21852 18.6667 7.77778 18.6667C7.33704 18.6667 6.96759 18.8157 6.66944 19.1139C6.3713 19.412 6.22222 19.7815 6.22222 20.2222C6.22222 20.663 6.3713 21.0324 6.66944 21.3306C6.96759 21.6287 7.33704 21.7778 7.77778 21.7778ZM7.77778 15.5556C8.21852 15.5556 8.58796 15.4065 8.88611 15.1083C9.18426 14.8102 9.33333 14.4407 9.33333 14C9.33333 13.5593 9.18426 13.1898 8.88611 12.8917C8.58796 12.5935 8.21852 12.4444 7.77778 12.4444C7.33704 12.4444 6.96759 12.5935 6.66944 12.8917C6.3713 13.1898 6.22222 13.5593 6.22222 14C6.22222 14.4407 6.3713 14.8102 6.66944 15.1083C6.96759 15.4065 7.33704 15.5556 7.77778 15.5556ZM7.77778 9.33333C8.21852 9.33333 8.58796 9.18426 8.88611 8.88611C9.18426 8.58796 9.33333 8.21852 9.33333 7.77778C9.33333 7.33704 9.18426 6.96759 8.88611 6.66944C8.58796 6.3713 8.21852 6.22222 7.77778 6.22222C7.33704 6.22222 6.96759 6.3713 6.66944 6.66944C6.3713 6.96759 6.22222 7.33704 6.22222 7.77778C6.22222 8.21852 6.3713 8.58796 6.66944 8.88611C6.96759 9.18426 7.33704 9.33333 7.77778 9.33333ZM18.6667 9.33333H24.8889L18.6667 3.11111V9.33333Z" fill="white"/>
</svg>
