<svg width="25" height="25" viewBox="0 0 25 25" fill="none" xmlns="http://www.w3.org/2000/svg">
<path d="M12.0565 24.1129C10.3886 24.1129 8.8213 23.7964 7.35444 23.1635C5.88757 22.5305 4.61159 21.6715 3.52651 20.5864C2.44143 19.5013 1.58241 18.2253 0.949446 16.7585C0.316482 15.2916 0 13.7243 0 12.0565C0 10.3886 0.316482 8.8213 0.949446 7.35444C1.58241 5.88757 2.44143 4.61159 3.52651 3.52651C4.61159 2.44143 5.88757 1.58241 7.35444 0.949446C8.8213 0.316482 10.3886 0 12.0565 0C13.7243 0 15.2916 0.316482 16.7585 0.949446C18.2253 1.58241 19.5013 2.44143 20.5864 3.52651C21.6715 4.61159 22.5305 5.88757 23.1635 7.35444C23.7964 8.8213 24.1129 10.3886 24.1129 12.0565C24.1129 13.7243 23.7964 15.2916 23.1635 16.7585C22.5305 18.2253 21.6715 19.5013 20.5864 20.5864C19.5013 21.6715 18.2253 22.5305 16.7585 23.1635C15.2916 23.7964 13.7243 24.1129 12.0565 24.1129ZM12.0565 21.7016C14.7491 21.7016 17.0297 20.7672 18.8985 18.8985C20.7672 17.0297 21.7016 14.7491 21.7016 12.0565C21.7016 10.9714 21.5258 9.92648 21.1741 8.92177C20.8225 7.91707 20.3151 6.99274 19.652 6.14879L6.14879 19.652C6.99274 20.3151 7.91707 20.8225 8.92177 21.1741C9.92648 21.5258 10.9714 21.7016 12.0565 21.7016ZM4.46089 17.9641L17.9641 4.46089C17.1202 3.79778 16.1958 3.29041 15.1911 2.93876C14.1864 2.58711 13.1415 2.41129 12.0565 2.41129C9.36384 2.41129 7.08317 3.34567 5.21442 5.21442C3.34567 7.08317 2.41129 9.36384 2.41129 12.0565C2.41129 13.1415 2.58711 14.1864 2.93876 15.1911C3.29041 16.1958 3.79778 17.1202 4.46089 17.9641Z" fill="#C5C5C5"/>
</svg>
